<?xml version="1.0" encoding="utf-8"?>
<!-- Generator: Adobe Illustrator 27.5.0, SVG Export Plug-In . SVG Version: 6.00 Build 0)  -->
<svg version="1.1" xmlns="http://www.w3.org/2000/svg" xmlns:xlink="http://www.w3.org/1999/xlink" x="0px" y="0px"
	 viewBox="0 0 512 512" style="enable-background:new 0 0 512 512;" xml:space="preserve">
<g id="_x30_4">
</g>
<g id="_x30_3">
</g>
<g id="_x30_2">
</g>
<g id="_x30_1">
</g>
<g id="PREVIEW">
	<rect x="0" style="fill:#FFDFDF;" width="512" height="512"/>
	<g>
		<path style="fill:#FFFFFF;" d="M73.774,259.522c-1.668,0-3.26-0.696-4.393-1.92c-1.133-1.224-1.704-2.864-1.575-4.527
			c0.391-5.053,1.013-12.394,1.876-20.531c-6.132-3.085-10.29-9.463-10.29-16.608c0-9.128,6.614-16.74,15.301-18.295
			c0.037-0.185,0.073-0.368,0.11-0.551c-4.711-2.574-9.286-6.177-13.641-10.75c-25.712-27.001-27.704-68.542-4.738-98.776
			c10.062-13.246,24.886-23.517,42.868-29.705c10.228-3.519,21.445-5.38,32.439-5.38c9.991,0,19.302,1.515,27.674,4.502
			c11.772,4.2,21.285,11.321,27.768,20.731c0.473-0.048,0.944-0.073,1.411-0.073c0.468,0,0.938,0.025,1.398,0.074
			c3.882,0.416,7.418,2.629,9.664,5.89c0.946,0.183,1.862,0.451,2.743,0.802c4.336,1.73,7.922,5.609,9.591,10.377
			c1.275,3.64,1.521,7.748,0.731,12.21c-0.11,0.622-0.317,1.218-0.608,1.766c3.731,2.84,6.997,6.304,9.626,10.273
			c9.26,1.049,16.48,8.93,16.48,18.466c0,6.037-2.844,11.507-7.528,14.944l14.809,100.22c0.254,1.721-0.253,3.468-1.39,4.786
			c-1.137,1.318-2.791,2.075-4.531,2.075H73.774z"/>
		<g>
			<path style="fill:#9ABDFF;" d="M157.156,63.627c-17.704-6.316-39.135-4.956-56.154,0.9c-15.648,5.384-29.938,14.354-40.05,27.665
				c-20.775,27.348-19.654,65.867,4.305,91.026c4.442,4.665,9.603,8.758,15.544,11.249c8.961,3.757,19.234,3.622,28.588,0.988
				c6.645-1.87,13.055-5.044,17.86-9.999c10.967-11.31,12.299-30.25,24.989-39.585c7.246-5.33,16.837-6.38,24.534-11.033
				c6.433-3.889,11.291-10.306,13.288-17.553c2.743-9.954-0.586-21.858-5.373-30.795C178.564,75.057,168.645,67.726,157.156,63.627z
				"/>
			<circle style="fill:#FFDFDF;" cx="107.114" cy="88.06" r="12.6"/>
			<g>
				<g>
					<path style="fill:#1F1541;" d="M239.33,254.544h-22.96l-5.132-0.895l-52.578-9.153l-0.876-0.154l-0.922-0.163l-0.994-0.172
						l-3.054,0.678c-0.036,0-0.063,0-0.099,0.009l-3.325,0.75l-0.488,0.108l-0.723,0.163l-39.793,8.828h-8.864l5.196-21.722
						l0.172-0.687l6.144-25.706l2.774-11.575l1.102-4.626l2.232-9.316l1.572-6.56l1.401-5.864l1.12-4.671l0.081-0.334l0.108-0.47
						l0.127-0.515l1.482-6.189l1.581-6.623l0.596-2.476l0.217-0.922l0.786-3.271l1.952-8.159c0.28-1.175,0.614-2.313,1.012-3.433
						l0.009-0.027c0.352-1.057,0.768-2.069,1.229-3.072c0.054-0.135,0.117-0.271,0.181-0.407c0.145-0.298,0.289-0.596,0.443-0.886
						c1.256-2.512,2.792-4.843,4.563-6.966c0.56-0.66,1.139-1.301,1.744-1.916c0.822-0.858,1.69-1.681,2.602-2.449
						c1.093-0.922,2.241-1.789,3.434-2.575c1.292-0.858,2.647-1.635,4.048-2.313c1.997-0.985,4.102-1.789,6.28-2.376h0.045
						c0.352-0.109,0.669-0.208,1.039-0.289c2.738-0.669,5.602-1.021,8.521-1.021h23.041c17.918,0,33.134,13.138,35.754,30.866
						L239.33,254.544z"/>
					<path style="fill:#F25553;" d="M228.253,254.544H88.444l12.288-51.358l9.74-40.688l0.967-4.039l2.385-9.966v-0.009l0.298-1.238
						l0.47-1.952l2.404-10.075v-0.009l0.09-0.352c1.337-5.557,3.922-10.572,7.409-14.746c1.319-1.581,2.765-3.045,4.328-4.373
						c0.361-0.307,0.741-0.614,1.12-0.913c0.28-0.217,0.569-0.443,0.867-0.651c0.352-0.262,0.705-0.515,1.066-0.759
						c1.455-0.994,2.991-1.888,4.581-2.656c0.253-0.127,0.515-0.253,0.777-0.361h0.045c2.259-1.039,4.581-1.843,7.048-2.394h0.018
						c2.557-0.578,5.186-0.876,7.888-0.876h23.041c1.265,0,2.512,0.063,3.741,0.199c0.641,0.063,1.283,0.145,1.916,0.244
						c15.379,2.422,27.757,14.593,30.098,30.423L228.253,254.544z"/>
				</g>
				<g>
					<g>
						<path style="fill:#5352ED;" d="M199.935,162.344l-7.933,0.154h-7.491c-1.563-4.021-3.669-7.843-6.244-11.313
							c1.924,3.524,3.262,7.364,3.967,11.313H94.363c0.126-4.644,1.31-9.46,3.578-13.4c-3.343,3.714-5.539,8.448-6.207,13.4H72.352
							c-1.69-0.072-1.093-0.768-1.482-0.614c0.361-5.765,3.488-11.159,7.87-14.9c4.382-3.75,9.921-5.945,15.586-6.957
							c-2.512-3.958-5.051-7.978-6.388-12.469c-1.337-4.491-1.346-9.605,1.048-13.626c3.659-6.144,11.475-8.042,18.433-9.569
							c0.75-0.163,1.527-0.343,2.096-0.858c1.328-1.22,0.732-3.388,0.226-5.132c-1.392-4.825-1.12-10.246,1.4-14.584
							c4.283-7.4,13.987-10.002,22.427-8.792c8.43,1.22,16.092,5.421,23.908,8.819c3.894,1.681,8.258,2.449,12.171,4.066
							c3.912,1.626,7.617,4.184,9.659,7.906c1.626,2.982,2.06,6.506,1.825,9.894c-0.244,3.397-1.12,6.704-1.988,9.993
							c-0.316,1.175-0.623,2.44-0.217,3.587c0.352,0.985,1.175,1.708,2.006,2.322c3.081,2.232,6.957,3.596,9.108,6.741
							c1.78,2.593,2.024,6.027,1.283,9.09c-0.741,3.063-2.376,5.828-4.12,8.448c2.928,2.015,6.09,3.723,8.647,6.198
							C198.399,154.538,200.432,158.821,199.935,162.344z"/>
					</g>
					<g>
						<g>
							<polygon style="fill:#FF9CD4;" points="128.065,159.749 160.46,156.725 162.346,129.344 155.399,129.126 134.502,129.675 
								128.496,148.773 							"/>
						</g>
						<g>
							<path style="fill:#1F1541;" d="M128.496,148.773c0.637,0.1,1.297,0.172,1.939,0.209c5.206,0.312,10.492-0.913,15.019-3.488
								c2.359-1.33,4.51-3.036,6.367-5.007c1.323-1.408,2.96-3.128,3.537-5.023c0.465-1.469,0.215-3.267,0.162-4.775
								c-0.012-0.524-0.061-1.044-0.122-1.562l-26.092-0.836L128.496,148.773z"/>
						</g>
					</g>
					<g>
						<path style="fill:#FF9CD4;" d="M114.61,105.044l0.14-1.211c1.96-12.219,11.53-20.878,24.107-22.363
							c15.273-1.803,29.159,9.471,31.014,25.182c1.008,8.535-1.763,16.606-6.934,22.504c-2.151,7.935-8.959,12.548-11.219,13.734
							c-6.813,3.574-26.851,1.542-31.588-2.5C112.646,134.005,114.61,105.044,114.61,105.044z"/>
					</g>
					<g>
						<g>
							<g>
								
									<ellipse transform="matrix(0.6221 -0.783 0.783 0.6221 -36.4051 176.4587)" style="fill:#FF9CD4;" cx="164.581" cy="125.939" rx="8.552" ry="8.552"/>
							</g>
							<g>
								<g>
									<path style="fill:#1F1541;" d="M161.669,130.399c-0.03,0-0.06-0.003-0.09-0.009c-0.236-0.048-0.391-0.276-0.348-0.513
										c0.765-4.316,4.452-8.009,8.766-8.782c0.244-0.043,0.473,0.117,0.516,0.359c0.043,0.242-0.117,0.473-0.359,0.516
										c-3.208,0.574-6.037,2.907-7.37,5.878c1.017-0.755,1.992-1.262,2.973-1.549c1.262-0.371,2.557-0.354,3.645,0.046
										c0.231,0.085,0.349,0.34,0.264,0.571c-0.085,0.231-0.341,0.349-0.57,0.264c-0.911-0.334-2.007-0.344-3.09-0.027
										c-0.93,0.273-1.865,0.774-2.857,1.534c-0.606,0.464-0.939,0.9-1.048,1.37C162.054,130.26,161.872,130.399,161.669,130.399z
										"/>
								</g>
							</g>
						</g>
						<g>
							<path style="fill:#5352ED;" d="M169.248,119.204c-2.669-1.703-6.033-0.766-8.74,0.876c-1.198,0.727-2.668,1.782-3.094,3.117
								c-2.384-2.205-3.885-5.339-4.108-8.579c-0.223-3.24,1.036-6.337,3.095-8.848c-3.748-2.914-9.011-6.388-11.607-10.481
								c-2.838-4.475-5.964-10.969-3.076-15.995c4.045,1.319,14.823,3.483,18.928,4.599c3.234,0.879,6.518,1.637,9.601,2.952
								c1.672,0.714,3.292,1.6,4.634,2.827c2.001,1.828,3.294,4.344,3.947,6.974c0.653,2.63,0.699,5.379,0.478,8.08
								c-0.559,6.84-2.646,13.517-6.367,19.284C172.425,122.24,171.478,120.627,169.248,119.204z"/>
						</g>
						<g>
							<g>
								<g>
									<path style="fill:#5352ED;" d="M117.429,103.253c-0.142,0.093-0.273,0.201-0.387,0.328
										c-0.502,0.555-0.487,1.352,0.123,1.807c0.283,0.211,0.627,0.323,0.97,0.409c1.248,0.313,2.553,0.326,3.836,0.238
										c0.662-0.045,1.342-0.123,1.926-0.439c0.583-0.317,1.053-0.926,1.017-1.589c-0.143-2.633-5.13-1.691-6.611-1.163
										C118,102.951,117.696,103.076,117.429,103.253z"/>
								</g>
								<g>
									<path style="fill:#5352ED;" d="M147.696,104.651c0.132,0.106,0.253,0.226,0.355,0.363c0.448,0.6,0.358,1.391-0.293,1.787
										c-0.302,0.184-0.655,0.262-1.004,0.315c-1.272,0.194-2.572,0.084-3.842-0.124c-0.655-0.107-1.325-0.249-1.876-0.619
										c-0.551-0.37-0.961-1.021-0.863-1.678c0.39-2.608,5.266-1.201,6.691-0.535C147.156,104.296,147.447,104.45,147.696,104.651
										z"/>
								</g>
							</g>
							<g>
								<g>
									<g>
										<g>
											<path style="fill:#1F1541;" d="M139.947,115.745c0.128,1.403,1.369,2.436,2.772,2.308
												c1.403-0.128,2.436-1.369,2.308-2.772c-0.128-1.403-1.369-2.436-2.772-2.308
												C140.852,113.101,139.819,114.342,139.947,115.745z"/>
										</g>
										<g>
											<path style="fill:#1F1541;" d="M120.028,114.35c0.128,1.403,1.369,2.436,2.772,2.308
												c1.403-0.128,2.436-1.369,2.308-2.772c-0.128-1.403-1.369-2.436-2.772-2.308
												C120.933,111.706,119.9,112.947,120.028,114.35z"/>
										</g>
									</g>
									<g>
										<path style="fill:#1F1541;" d="M129.383,123.327c-0.172,0-0.337-0.095-0.418-0.259l-1.668-3.361
											c-0.095-0.192-0.048-0.424,0.115-0.562l1.522-1.297c0.895-0.762,1.186-1.886,0.944-3.644
											c-0.035-0.255,0.143-0.49,0.398-0.525c0.258-0.031,0.491,0.143,0.525,0.398c0.18,1.308,0.244,3.195-1.263,4.48
											l-1.245,1.061l1.506,3.035c0.115,0.231,0.02,0.51-0.21,0.625C129.523,123.311,129.452,123.327,129.383,123.327z"/>
									</g>
									<g>
										<path style="fill:#1F1541;" d="M131.132,127.976c-2.518,0-3.915-2.933-3.977-3.066c-0.109-0.233-0.008-0.51,0.225-0.618
											c0.231-0.109,0.509-0.009,0.619,0.224c0.013,0.029,1.345,2.814,3.489,2.501c2.15-0.32,2.653-2.808,2.673-2.914
											c0.049-0.252,0.289-0.416,0.545-0.371c0.252,0.048,0.419,0.291,0.371,0.544c-0.025,0.132-0.64,3.244-3.451,3.663
											C131.456,127.964,131.291,127.976,131.132,127.976z"/>
									</g>
								</g>
							</g>
							<g>
								<g>
									<path style="fill:#1F1541;" d="M112.689,106.554l16.926,0.775l2.156,0.099l2.382,0.109l25.136,1.151l-0.231,5.768
										l-4.095,0.404l-1.478,5.502c-0.345,1.283-1.569,2.128-2.891,1.994l-13.194-1.337c-0.978-0.099-1.826-0.72-2.215-1.622
										l-2.393-5.541c-0.163-0.272-0.457-0.438-0.774-0.438h-2.315l-1.885,4.986c-0.422,1.115-1.523,1.824-2.713,1.746
										l-8.766-0.574c-1.386-0.091-2.479-1.214-2.532-2.602l-0.253-6.67l-1.038-0.173L112.689,106.554z"/>
								</g>
								<g>
									<path style="fill:#F25553;" d="M136.451,110.361l0.174,6.031c0.04,1.389,1.124,2.523,2.51,2.625l9.395,0.693
										c1.426,0.105,2.689-0.916,2.885-2.333l0.877-6.363L136.451,110.361z"/>
								</g>
								<g>
									<path style="fill:#9ABDFF;" d="M114.765,109.669l0.139,5.571c0.035,1.381,1.103,2.516,2.479,2.633l6.69,0.571
										c1.457,0.124,2.749-0.929,2.922-2.38l0.689-5.779L114.765,109.669z"/>
								</g>
							</g>
						</g>
					</g>
					<g>
						<path style="fill:#1F1541;" d="M211.238,253.65c-0.027,0.298-0.054,0.596-0.081,0.895H73.535
							c1.482-19.137,5.349-59.427,12.505-74.67c3.93-8.349,9.65-13.815,15.857-17.376c2.187-1.247,4.437-2.268,6.686-3.09
							c0.958-0.352,1.907-0.669,2.855-0.949c4.048-1.202,8.024-1.834,11.593-2.15c1.663-0.154,3.235-0.235,4.689-0.271l0.578-2.259
							v-0.045l0.732-2.792l0.072-0.289l6.009-0.154l1.527-0.045h0.009l24.288-0.623l3.849-0.1l0.768,6.768
							c0,0,7.527,1.193,16.454,4.897c0.822,0.334,1.654,0.696,2.494,1.084c0.018,0.009,0.036,0.009,0.045,0.018
							c10.527,4.834,22.146,13.183,25.453,27.071C214.329,207.721,212.756,236.599,211.238,253.65z"/>
					</g>
					<g>
						<path style="fill:#5352ED;" d="M103.877,204.179c-2.141,4.843-4.572,11.647-4.572,17.611c0,5.918,3.668,9.099,5.584,10.346
							c0.669,0.434,1.111,0.633,1.129,0.642c0.127,0.054,0.208,0.181,0.208,0.316l-0.163,21.451h-0.678l0.154-21.243
							c-0.181-0.09-0.461-0.244-0.822-0.479c-1.97-1.238-6.09-4.59-6.09-11.033c0-6.045,2.44-12.912,4.608-17.818
							c1.708-3.876,3.244-6.515,3.28-6.578c0.09-0.163,0.298-0.217,0.461-0.118c0.163,0.09,0.217,0.298,0.126,0.461
							C107.067,197.8,105.558,200.393,103.877,204.179z"/>
					</g>
					<g>
						<g>
							<g>
								<path style="fill:#F25553;" d="M112.574,147.503c0,0,22.147-4.614,29.76,10.843l-26.151,47.427
									c-0.623,1.13-1.956,1.664-3.187,1.277l-15.783-4.965c-1.447-0.455-2.238-2.008-1.757-3.446L112.574,147.503z"/>
							</g>
							<g>
								<g>
									<path style="fill:#FFDFDF;" d="M126.069,149.718c-0.054,0-0.109-0.008-0.162-0.026c-0.279-0.09-0.433-0.389-0.344-0.668
										l6.255-19.503c0.043-0.135,0.138-0.246,0.264-0.311c0.125-0.065,0.272-0.076,0.406-0.033l6.087,1.973
										c0.279,0.091,0.432,0.391,0.342,0.669c-0.091,0.28-0.389,0.433-0.669,0.342l-5.58-1.809l-6.092,18.995
										C126.503,149.575,126.294,149.718,126.069,149.718z"/>
								</g>
								<g>
									<path style="fill:#FFDFDF;" d="M110.412,147.022c-0.054,0.918,0.725,1.658,1.641,1.574
										c2.761-0.253,8.623-0.328,16.362,2.137c7.124,2.269,11.423,5.626,13.42,7.51c0.71,0.67,1.856,0.486,2.327-0.37l0.009-0.016
										c0.307-0.557,0.231-1.251-0.199-1.719c-1.724-1.879-6.693-6.548-15.402-9.062c-7.424-2.142-14.09-1.878-16.794-1.638
										c-0.737,0.065-1.308,0.66-1.352,1.398L110.412,147.022z"/>
								</g>
							</g>
						</g>
						<g>
							<g>
								<path style="fill:#5352ED;" d="M202.88,245.463c-0.126,0.145-0.343,0.154-0.479,0.036l-26.393-23.077l-0.289-0.253
									l-0.407,0.398l-1.4,1.4l-0.885,0.876l-21.342,17.52l-2.9,2.385l-0.288,0.234c-0.002,0.007-0.007,0.013-0.009,0.02
									l0.315,0.415l0.099,0.135l6.695,8.99h-0.84l-6.578-8.828l-0.425-0.578c-0.108-0.145-0.081-0.352,0.054-0.47l3.569-2.928
									l21.198-17.403l0.867-0.858l2.024-2.006c0.072-0.054,0.163-0.09,0.253-0.099c0.045,0,0.081,0.009,0.118,0.027
									c0.027,0.009,0.063,0.027,0.09,0.054c0.009,0,0.027,0.018,0.036,0.027l4.03,3.524l0.66,0.578l22.191,19.4
									C202.989,245.111,202.998,245.328,202.88,245.463z"/>
							</g>
							<g>
								<g>
									<path style="fill:#FF9CD4;" d="M175.277,225.386c-0.669,3.804-2.413,9.768-6.876,13.933
										c-4.382,4.093-10.906,5.331-15.207,5.674c-0.262-0.135-0.398-0.217-0.398-0.217l0.027-0.063l-13.671-28.128
										c-1.717-1.337-5.955-5.006-8.222-10.129c-2.891-6.524-5.141-9.632-5.141-9.632s-13.987,0.289-15.758-5.602
										c-0.163-0.56,0.244-1.12,0.831-1.102l18.568,0.506l0.75-3.849l-6.524-6.316c0,0-12.885,2.801-13.463-4.825
										c-0.036-0.461,0.316-0.867,0.777-0.895c3.289-0.199,15.758-0.904,16.96-0.163c1.392,0.858,6.415,5.991,6.415,5.991
										l0.434-0.533l-5.241-7.599c0,0-12.325-2.15-11.819-8.882c0.045-0.506,0.551-0.858,1.048-0.723l14.62,3.723
										c0,0-4.473-7.219-0.858-10.653c0.37-0.343,0.967-0.253,1.247,0.163c1.934,2.9,8.9,13.436,9.451,15.731
										c0.641,2.674,5.774,25.643,10.165,30.848L175.277,225.386z"/>
								</g>
								<g>
									<path style="fill:#1F1541;" d="M139.699,175.67c-0.135,0-0.266-0.066-0.345-0.187c-1.384-2.115-5.086-7.727-5.595-8.294
										c-0.691-0.511-10.168-2.843-15.974-4.188c-0.222-0.051-0.36-0.273-0.308-0.495c0.052-0.222,0.275-0.358,0.494-0.308
										c4.712,1.092,15.743,3.709,16.401,4.44c0.656,0.728,5.467,8.081,5.672,8.393c0.125,0.191,0.072,0.446-0.119,0.571
										C139.854,175.648,139.776,175.67,139.699,175.67z"/>
								</g>
							</g>
							<g>
								<path style="fill:#5352ED;" d="M180.322,225.894c-0.002,0-0.003,0-0.006,0c-0.187-0.003-0.336-0.158-0.333-0.345
									l0.461-27.684c0.004-0.187,0.117-0.323,0.345-0.333c0.187,0.003,0.336,0.158,0.333,0.345l-0.461,27.684
									C180.658,225.747,180.506,225.894,180.322,225.894z"/>
							</g>
							<g>
								<path style="fill:#5352ED;" d="M150.158,245.456c-0.845,0-1.348-0.032-1.387-0.035c-0.187-0.012-0.328-0.173-0.316-0.36
									c0.012-0.187,0.174-0.331,0.36-0.316c0.018,0.001,1.799,0.113,4.351-0.09c4.502-0.36,10.759-1.62,15.002-5.584
									c4.535-4.232,6.191-10.428,6.774-13.744c0.388-2.151,0.428-3.612,0.428-3.627c0.005-0.187,0.17-0.319,0.347-0.33
									c0.187,0.005,0.335,0.16,0.33,0.347c-0.002,0.061-0.042,1.524-0.439,3.729c-0.73,4.152-2.534,9.973-6.979,14.121
									c-4.386,4.097-10.801,5.396-15.411,5.765C151.979,245.43,150.927,245.456,150.158,245.456z"/>
							</g>
						</g>
					</g>
				</g>
			</g>
			<g>
				<path style="fill:#FFDFDF;" d="M231.986,138.506c0,6.958-5.641,12.6-12.6,12.6s-12.6-5.641-12.6-12.6
					c0-6.959,5.641-12.6,12.6-12.6S231.986,131.548,231.986,138.506z"/>
				<circle style="fill:#FFDFDF;" cx="77.738" cy="216.943" r="12.6"/>
			</g>
			<g>
				<path style="fill:none;stroke:#1F1541;stroke-width:0.9036;stroke-miterlimit:10;" d="M54.781,152.053
					c-0.896-3.111-1.525-6.397-0.917-9.577c0.608-3.18,2.676-6.242,5.75-7.256c4.298-1.417,9.205,1.888,10.398,6.254
					c0.336,1.227,0.293,2.816-0.816,3.44c-0.572,0.322-1.276,0.283-1.923,0.171c-3.761-0.651-6.919-3.465-8.638-6.873
					c-2.592-5.136-1.975-11.876,1.922-16.107c3.898-4.231,10.983-5.294,15.676-1.966c1.353,0.959,2.522,2.297,2.885,3.916
					c0.362,1.618-0.263,3.518-1.728,4.295c-2.315,1.229-5.09-0.815-6.359-3.108c-2.225-4.019-2.127-9.222,0.248-13.154
					c2.374-3.932,6.934-6.442,11.526-6.345"/>
				<path style="fill:none;stroke:#1F1541;stroke-width:0.9036;stroke-miterlimit:10;" d="M178.865,91.622
					c1.261-2.701,3.607-4.876,6.396-5.928c1.21-0.457,2.515-0.709,3.801-0.571c2.646,0.284,4.954,2.283,5.901,4.77
					c0.947,2.487,0.624,5.358-0.573,7.735c-0.975,1.936-2.656,3.666-4.79,4.047c-2.134,0.38-4.614-1.044-4.821-3.201
					c-0.192-1.997,1.448-3.68,3.098-4.822c3.457-2.392,7.985-3.815,11.89-2.258c2.809,1.12,4.901,3.671,5.901,6.525
					c0.999,2.854,0.995,5.982,0.468,8.96"/>
			</g>
		</g>
	</g>
	<g>
		<path style="fill:#FFFFFF;" d="M354.835,274.647c-10.937,0-20.01-8.133-21.489-18.669c-6.506-1.987-12.573-4.52-18.084-7.552
			c-5.954-3.276-11.271-7.155-15.839-11.552h-28.665c-3.306,0-5.986-2.68-5.986-5.986v-93.033c0-3.306,2.68-5.986,5.986-5.986
			h13.538l-13.87-35.818c-0.596-1.538-0.53-3.253,0.181-4.742c0.297-0.621,2.629-5.25,7.343-7.754
			c0.49-0.994,1.091-1.92,1.785-2.756c-0.272-3.438,0.209-6.558,1.439-9.307c1.3-2.907,3.491-5.267,6.092-6.751
			c0.163-2.129,0.809-4.221,1.924-6.063c2.32-3.831,6.538-6.363,11.009-6.607c0.258-0.014,0.514-0.021,0.769-0.021
			c3.212,0,6.048,1.11,8.435,2.562c1.112-1.064,2.383-1.913,3.743-2.517c1.726-7.454,8.097-13.646,15.896-14.612
			c0.694-0.086,1.404-0.13,2.109-0.13c6.156,0,11.926,3.218,15.414,8.06c0.708-0.123,1.439-0.187,2.184-0.187
			c1.774,0,3.54,0.381,5.106,1.102c1.824,0.84,3.445,2.09,4.806,3.68c1.733-0.708,3.488-1.096,5.255-1.159
			c0.15-0.005,0.3-0.008,0.45-0.008c3.318,0,6.381,1.224,8.629,3.245c0.31-0.025,0.625-0.038,0.941-0.038
			c4.314,0,8.516,2.373,10.703,6.045c0.303,0.51,0.574,1.044,0.81,1.6c5.34,2.7,6.775,7.492,6.943,8.123
			c0.11,0.412,0.175,0.835,0.195,1.261l0.863,18.334c4.56-1.594,9.523-2.685,14.844-3.261c2.665-0.288,5.353-0.435,7.989-0.435
			c11.825,0,22.721,2.898,31.51,8.381c6.901,4.306,13.193,10.636,18.7,18.816c10.019,14.881,15.295,32.237,15.258,50.193
			c-0.035,16.859-4.714,33.528-13.548,48.319v19.385c0,4.446-3.617,8.064-8.064,8.064h-16.223
			C429.12,248.4,410.953,256,389.884,259.473c-4.818,0.795-9.818,1.306-14.917,1.526
			C371.733,269.047,363.816,274.647,354.835,274.647z"/>
		<g>
			<path style="fill:#9ABDFF;" d="M317.198,242.215c20.768,11.428,48.011,14.135,70.762,10.385
				c20.917-3.448,40.965-11.604,56.777-25.978c32.487-29.531,40.071-77.347,15.842-113.335c-4.492-6.672-10.02-12.786-16.903-17.08
				c-10.382-6.477-23.32-8.412-35.687-7.074c-8.785,0.95-17.58,3.558-24.774,8.696c-16.419,11.727-22.514,34.853-40.638,43.786
				c-10.348,5.101-22.643,4.434-33.401,8.607c-8.991,3.487-16.592,10.42-20.793,18.965c-5.77,11.735-4.367,27.123-0.438,39.143
				C292.971,223.71,303.721,234.799,317.198,242.215z"/>
			<g>
				<g>
					
						<ellipse transform="matrix(0.7071 -0.7071 0.7071 0.7071 39.3303 330.7473)" style="fill:#FFDFDF;" cx="418.913" cy="117.898" rx="15.714" ry="15.714"/>
					
						<ellipse transform="matrix(0.9246 -0.3809 0.3809 0.9246 -69.2974 153.7704)" style="fill:#FFDFDF;" cx="353.885" cy="251.98" rx="15.714" ry="15.714"/>
				</g>
				<g>
					<g>
						<g>
							<path style="fill:#FFDFDF;" d="M282.766,93.357c-2.447-3.526-1.278-9.018,2.394-11.241c-0.643-3.039-0.74-6.313,0.528-9.148
								c1.268-2.835,4.148-5.095,7.249-4.921c-1.042-2.288-0.878-5.086,0.424-7.236c1.302-2.151,3.705-3.593,6.215-3.73
								c4.262-0.233,7.856,2.949,10.919,5.92c-0.258-3.804,3.479-7.357,7.266-6.906c-0.544-6.446,4.648-12.844,11.068-13.639
								c6.42-0.795,13.016,4.142,14.062,10.526c1.257-2.603,4.887-3.393,7.512-2.184c2.625,1.209,4.301,3.892,5.148,6.655
								c2.15-1.899,4.766-3.487,7.633-3.59c2.867-0.103,5.934,1.683,6.519,4.491c2.452-2.46,7.07-1.151,8.846,1.833
								c1.777,2.984,1.322,6.821,0.075,10.062C376.219,76.499,371.27,81.4,366.14,85.7c-5.884,4.932-12.197,9.352-18.845,13.193
								c-7.246,4.187-15.099,7.742-23.445,8.358c-13.07,0.964-25.476-5.306-36.965-11.612L282.766,93.357z"/>
							<path style="opacity:0.63;fill:#FFFFFF;" d="M282.766,93.357c-2.447-3.526-1.278-9.018,2.394-11.241
								c-0.643-3.039-0.74-6.313,0.528-9.148c1.268-2.835,4.148-5.095,7.249-4.921c-1.042-2.288-0.878-5.086,0.424-7.236
								c1.302-2.151,3.705-3.593,6.215-3.73c4.262-0.233,7.856,2.949,10.919,5.92c-0.258-3.804,3.479-7.357,7.266-6.906
								c-0.544-6.446,4.648-12.844,11.068-13.639c6.42-0.795,13.016,4.142,14.062,10.526c1.257-2.603,4.887-3.393,7.512-2.184
								c2.625,1.209,4.301,3.892,5.148,6.655c2.15-1.899,4.766-3.487,7.633-3.59c2.867-0.103,5.934,1.683,6.519,4.491
								c2.452-2.46,7.07-1.151,8.846,1.833c1.777,2.984,1.322,6.821,0.075,10.062C376.219,76.499,371.27,81.4,366.14,85.7
								c-5.884,4.932-12.197,9.352-18.845,13.193c-7.246,4.187-15.099,7.742-23.445,8.358c-13.07,0.964-25.476-5.306-36.965-11.612
								L282.766,93.357z"/>
							<path style="fill:#FFFFFF;" d="M286.283,90.877c-0.432-2.321,0.731-4.855,2.774-6.041c-0.483-2.535-0.265-5.285,1.073-7.492
								c1.338-2.207,3.928-3.734,6.484-3.378c1.222-2.894,3.996-5.076,7.097-5.581c3.1-0.505,6.424,0.683,8.501,3.04
								c1.592-2.219,4.831-2.699,7.427-1.853c2.596,0.846,4.703,2.73,6.726,4.564c0.328-4.033,2.063-8.054,5.207-10.601
								c3.144-2.547,7.769-3.373,11.376-1.538c0.997-3.12,4.311-5.327,7.575-5.043c3.263,0.284,6.146,3.031,6.589,6.277
								c1.181-2.277,3.75-3.666,6.314-3.735c2.564-0.069,5.073,1.065,6.969,2.793c3.261,2.972,4.739,7.568,4.586,11.977
								c-0.153,4.41-1.787,8.655-3.951,12.5c-5.518,9.803-14.493,17.364-24.489,22.523c-7.383,3.811-15.559,6.436-23.865,6.226
								c-13.629-0.346-26.177-8.372-34.922-18.832L286.283,90.877z"/>
						</g>
						<g>
							<path style="fill:#F25553;" d="M386.168,163.741l-0.172,0.155l-7.073,0.917l-4.173,0.554l-0.069-0.021l-7.409-2.565
								l-7.349,4.526l-0.044,0.01l-15.969,2.101l-0.095-0.052l-6.185-2.989l-5.109,4.513l-0.017,0.027l-6.859,0.909l-7.131,0.926
								l-0.058,0.009l-6.967-0.641l-18.162-47.649l-5.521-14.501c0,0-2.308-8.918-2.543-15.227l0.001-0.014
								c-0.103-2.49,0.156-4.59,0.988-5.536c0.001-0.014,0.016-0.013,0.017-0.027c0.61-0.711,1.574-0.804,2.964,0.014
								c0.041,0.018,0.093,0.066,0.149,0.086c0.214,0.149,0.442,0.299,0.667,0.478c0.198,0.161,0.411,0.325,0.609,0.486
								c0.237,0.208,0.473,0.416,0.708,0.638c0,0-1.084-5.935,6.266-8.536c5.357-1.895,8.841,0.721,10.329,2.289
								c0.57,0.597,0.855,1.037,0.855,1.037s4.278,7.553,11.789,5.651c7.507-1.873,6.553-10.048,6.553-10.048
								s0.013-0.284,0.102-0.76c0.36-2.118,1.924-8.012,8.084-9.359c6.306-1.39,9.234,3.011,10.005,4.482
								c0.132,0.255,0.215,0.434,0.241,0.465c-0.001,0.014-0.001,0.014-0.001,0.014s3.191,9.373,11.019,8.172
								c0.102-0.019,0.217-0.036,0.319-0.055c1.016-0.188,1.934-0.541,2.75-1.019c1.145-0.646,2.099-1.523,2.878-2.503
								c3.11-3.878,3.743-9.434,3.743-9.434s-0.01-0.785,0.265-1.871l-0.013-0.015c0.035-0.068,0.059-0.165,0.08-0.235
								c0.225-0.563,0.628-0.154,1.286,0.565c1.215,1.3,3.327,3.655,7.061,3.373l0.016-0.013c0.861-0.06,1.608,0.026,2.216,0.227
								c5.678,1.885,0.948,14.176,0.948,14.176l5.135,48.807L386.168,163.741z"/>
							<g>
								<path style="fill:#FFDFDF;" d="M318.513,172.753l-0.058,0.009l-11.869,1.568l-19.636-50.698l-11.891-30.709
									c0,0,2.266-4.743,6.611-5.752l0.028,0.003c1.443-0.332,3.06-0.248,4.939,0.531l0.014,0.001
									c0.822,0.35,1.687,0.846,2.581,1.474c0.041,0.018,0.093,0.066,0.149,0.086c0.214,0.149,0.442,0.299,0.667,0.478
									c0.198,0.161,0.411,0.325,0.609,0.486l3.04,9.017l0.013,0.016l1.721,5.084l-0.001,0.014l7.203,21.334L318.513,172.753z"/>
								<path style="fill:#FFDFDF;" d="M343.822,169.439l-11.29,1.482l-0.011-0.03l-12.205-42.871l-3.738-13.175l-0.014-0.001
									l0.001-0.014l-2.304-8.076l0.001-0.014l-6.301-22.117c0.57,0.597,0.855,1.037,0.855,1.037s0.309-7.669,7.804-9.557
									c7.51-1.902,10.538,5.161,10.538,5.161s0.013-0.284,0.102-0.76l4.703,25.243l-0.001,0.014l1.591,8.521l2.952,15.865
									l7.31,39.221L343.822,169.439z"/>
								<path style="fill:#FFDFDF;" d="M378.922,164.813l-4.173,0.554l-0.072,0.007l-14.755,1.933l-0.044,0.01l-5.522-34.83
									l-3.999-25.304l0.001-0.014l-1.482-9.209l0.001-0.014l-3.53-22.322c0.132,0.255,0.215,0.434,0.241,0.465
									c0.037-0.381,0.884-8.169,8.628-9.678c0.031-0.025,0.089-0.034,0.118-0.046c8.057-1.507,11.961,4.898,11.961,4.898
									s-0.01-0.785,0.265-1.871l-0.013-0.015c0.035-0.068,0.059-0.165,0.08-0.235c0.225-0.563,0.628-0.154,1.286,0.565
									l1.508,13.089l0.647,5.579l-0.001,0.014l5.435,46.868l1.337,11.605L378.922,164.813z"/>
								<g>
									<path style="fill:#FFFFFF;" d="M358.23,74.994l0.682-0.095c1.668-0.233,3.192,0.974,3.348,2.65l1.128,12.112
										c0.161,1.734-1.206,3.23-2.948,3.226l0,0c-1.458-0.004-2.694-1.071-2.911-2.512l-1.81-12.017
										C355.474,76.733,356.603,75.221,358.23,74.994z"/>
									<path style="fill:#FFFFFF;" d="M360.6,96.883L360.6,96.883c1.249-0.331,2.514,0.48,2.734,1.753l1.25,7.241
										c0.221,1.281-0.71,2.474-2.007,2.57l-0.448,0.033c-1.182,0.088-2.221-0.776-2.351-1.954l-0.801-7.274
										C358.857,98.169,359.547,97.162,360.6,96.883z"/>
								</g>
							</g>
							<path style="fill:#F25553;" d="M390.139,163.352l-4.144,0.543l-7.073,0.917l-4.173,0.554l-0.072,0.007l0.003-0.028
								l-2.585-30.528l-0.885-10.52l-2.84-33.361l0.001-0.014l-0.558-6.654l0.001-0.014l-1.253-14.861l-0.013-0.015
								c0.035-0.068,0.059-0.165,0.08-0.235c0.499-1.777,1.774-4.221,5.07-5.444l0.014,0.001c0.948-0.365,2.055-0.615,3.362-0.718
								c1.808-0.126,3.293,0.003,4.534,0.293l0.014,0.001c5.001,1.221,6.038,5.113,6.038,5.113l3.231,68.625L390.139,163.352z"/>
						</g>
					</g>
					<polygon style="opacity:0.36;fill:#1F1541;" points="390.139,163.352 385.996,163.895 378.922,164.813 374.749,165.367 
						374.677,165.374 359.922,167.307 359.878,167.317 343.909,169.419 343.814,169.367 343.822,169.439 332.531,170.92 
						332.52,170.891 332.503,170.918 325.644,171.827 318.513,172.753 318.455,172.762 306.586,174.33 286.95,123.632 
						293.327,124.473 302.633,125.694 320.315,128.02 336.505,130.145 354.356,132.487 372.095,134.818 375.503,135.259 
						383.288,136.278 388.891,137.016 					"/>
				</g>
				<g>
					<g>
						<g>
							<rect x="269.809" y="136.888" style="fill:#1F1541;" width="188.984" height="93.033"/>
							<path style="fill:#FF9CD4;" d="M459.19,229.921h-7.561v-93.033h7.561c1.148,0,2.078,0.931,2.078,2.078v88.876
								C461.269,228.99,460.338,229.921,459.19,229.921z"/>
							<g>
								<rect x="278.652" y="145.997" style="fill:#FFDFDF;" width="163.161" height="73.224"/>
								<g style="opacity:0.45;">
									
										<line style="fill:none;stroke:#1F1541;stroke-width:0.5;stroke-miterlimit:10;" x1="275.203" y1="152.14" x2="446.854" y2="152.14"/>
									
										<line style="fill:none;stroke:#1F1541;stroke-width:0.5;stroke-miterlimit:10;" x1="275.203" y1="158.283" x2="446.854" y2="158.283"/>
									
										<line style="fill:none;stroke:#1F1541;stroke-width:0.5;stroke-miterlimit:10;" x1="275.203" y1="164.425" x2="446.854" y2="164.425"/>
									
										<line style="fill:none;stroke:#1F1541;stroke-width:0.5;stroke-miterlimit:10;" x1="275.203" y1="170.568" x2="446.854" y2="170.568"/>
									
										<line style="fill:none;stroke:#1F1541;stroke-width:0.5;stroke-miterlimit:10;" x1="275.203" y1="176.711" x2="446.854" y2="176.711"/>
									
										<line style="fill:none;stroke:#1F1541;stroke-width:0.5;stroke-miterlimit:10;" x1="275.203" y1="182.854" x2="446.854" y2="182.854"/>
									
										<line style="fill:none;stroke:#1F1541;stroke-width:0.5;stroke-miterlimit:10;" x1="275.203" y1="188.997" x2="446.854" y2="188.997"/>
									
										<line style="fill:none;stroke:#1F1541;stroke-width:0.5;stroke-miterlimit:10;" x1="275.203" y1="195.14" x2="446.854" y2="195.14"/>
									
										<line style="fill:none;stroke:#1F1541;stroke-width:0.5;stroke-miterlimit:10;" x1="275.203" y1="201.283" x2="446.854" y2="201.283"/>
									
										<line style="fill:none;stroke:#1F1541;stroke-width:0.5;stroke-miterlimit:10;" x1="275.203" y1="207.426" x2="446.854" y2="207.426"/>
									
										<line style="fill:none;stroke:#1F1541;stroke-width:0.5;stroke-miterlimit:10;" x1="275.203" y1="213.569" x2="446.854" y2="213.569"/>
								</g>
							</g>
						</g>
						<g>
							<path style="fill:#FFDFDF;" d="M449.507,141.752c0,1.368-1.109,2.476-2.476,2.476c-1.368,0-2.476-1.109-2.476-2.476
								c0-1.368,1.109-2.476,2.476-2.476C448.398,139.276,449.507,140.384,449.507,141.752z"/>
							<g>
								<path style="fill:#FFDFDF;" d="M449.507,152.01c0,1.368-1.109,2.476-2.476,2.476c-1.368,0-2.476-1.109-2.476-2.476
									c0-1.368,1.109-2.476,2.476-2.476C448.398,149.534,449.507,150.643,449.507,152.01z"/>
								<path style="fill:#FFDFDF;" d="M449.507,162.268c0,1.368-1.109,2.476-2.476,2.476c-1.368,0-2.476-1.109-2.476-2.476
									c0-1.367,1.109-2.476,2.476-2.476C448.398,159.792,449.507,160.901,449.507,162.268z"/>
								<path style="fill:#FFDFDF;" d="M449.507,172.527c0,1.368-1.109,2.476-2.476,2.476c-1.368,0-2.476-1.109-2.476-2.476
									c0-1.368,1.109-2.476,2.476-2.476C448.398,170.051,449.507,171.159,449.507,172.527z"/>
								<path style="fill:#FFDFDF;" d="M449.507,182.785c0,1.368-1.109,2.476-2.476,2.476c-1.368,0-2.476-1.109-2.476-2.476
									c0-1.368,1.109-2.476,2.476-2.476C448.398,180.309,449.507,181.418,449.507,182.785z"/>
								<path style="fill:#FFDFDF;" d="M449.507,193.044c0,1.368-1.109,2.476-2.476,2.476c-1.368,0-2.476-1.109-2.476-2.476
									c0-1.367,1.109-2.476,2.476-2.476C448.398,190.568,449.507,191.676,449.507,193.044z"/>
								<path style="fill:#FFDFDF;" d="M449.507,203.302c0,1.367-1.109,2.476-2.476,2.476c-1.368,0-2.476-1.109-2.476-2.476
									c0-1.368,1.109-2.476,2.476-2.476C448.398,200.826,449.507,201.934,449.507,203.302z"/>
								<path style="fill:#FFDFDF;" d="M449.507,213.56c0,1.368-1.109,2.476-2.476,2.476c-1.368,0-2.476-1.109-2.476-2.476
									c0-1.368,1.109-2.476,2.476-2.476C448.398,211.084,449.507,212.193,449.507,213.56z"/>
							</g>
							<path style="fill:#FFDFDF;" d="M449.507,223.819c0,1.368-1.109,2.476-2.476,2.476c-1.368,0-2.476-1.109-2.476-2.476
								c0-1.367,1.109-2.476,2.476-2.476C448.398,221.343,449.507,222.451,449.507,223.819z"/>
						</g>
						<g>
							<path style="fill:#FFDFDF;" d="M277.944,141.398c0,1.367-1.109,2.476-2.476,2.476c-1.368,0-2.476-1.109-2.476-2.476
								c0-1.368,1.109-2.476,2.476-2.476C276.836,138.922,277.944,140.031,277.944,141.398z"/>
							<path style="fill:#FFDFDF;" d="M288.203,141.221c0,1.368-1.109,2.476-2.476,2.476c-1.367,0-2.476-1.109-2.476-2.476
								c0-1.368,1.109-2.476,2.476-2.476C287.094,138.745,288.203,139.854,288.203,141.221z"/>
							<path style="fill:#FFDFDF;" d="M298.815,141.398c0,1.367-1.109,2.476-2.476,2.476c-1.368,0-2.476-1.109-2.476-2.476
								c0-1.368,1.109-2.476,2.476-2.476C297.706,138.922,298.815,140.031,298.815,141.398z"/>
							<path style="fill:#FFDFDF;" d="M308.896,141.398c0,1.367-1.109,2.476-2.476,2.476c-1.367,0-2.476-1.109-2.476-2.476
								c0-1.368,1.109-2.476,2.476-2.476C307.788,138.922,308.896,140.031,308.896,141.398z"/>
							<path style="fill:#FFDFDF;" d="M318.978,141.398c0,1.367-1.109,2.476-2.476,2.476c-1.368,0-2.476-1.109-2.476-2.476
								c0-1.368,1.109-2.476,2.476-2.476C317.869,138.922,318.978,140.031,318.978,141.398z"/>
							<path style="fill:#FFDFDF;" d="M329.059,141.398c0,1.367-1.109,2.476-2.476,2.476c-1.367,0-2.476-1.109-2.476-2.476
								c0-1.368,1.109-2.476,2.476-2.476C327.951,138.922,329.059,140.031,329.059,141.398z"/>
							<path style="fill:#FFDFDF;" d="M339.141,141.398c0,1.367-1.109,2.476-2.476,2.476c-1.367,0-2.476-1.109-2.476-2.476
								c0-1.368,1.109-2.476,2.476-2.476C338.032,138.922,339.141,140.031,339.141,141.398z"/>
							<path style="fill:#FFDFDF;" d="M349.223,141.398c0,1.367-1.109,2.476-2.476,2.476c-1.367,0-2.476-1.109-2.476-2.476
								c0-1.368,1.109-2.476,2.476-2.476C348.114,138.922,349.223,140.031,349.223,141.398z"/>
							<path style="fill:#FFDFDF;" d="M359.304,141.398c0,1.367-1.109,2.476-2.476,2.476c-1.367,0-2.476-1.109-2.476-2.476
								c0-1.368,1.109-2.476,2.476-2.476C358.195,138.922,359.304,140.031,359.304,141.398z"/>
							<path style="fill:#FFDFDF;" d="M369.385,141.398c0,1.367-1.109,2.476-2.476,2.476c-1.368,0-2.476-1.109-2.476-2.476
								c0-1.368,1.109-2.476,2.476-2.476C368.277,138.922,369.385,140.031,369.385,141.398z"/>
							<path style="fill:#FFDFDF;" d="M379.467,141.398c0,1.367-1.109,2.476-2.476,2.476c-1.367,0-2.476-1.109-2.476-2.476
								c0-1.368,1.109-2.476,2.476-2.476C378.358,138.922,379.467,140.031,379.467,141.398z"/>
							<path style="fill:#FFDFDF;" d="M389.548,141.398c0,1.367-1.109,2.476-2.476,2.476s-2.476-1.109-2.476-2.476
								c0-1.368,1.109-2.476,2.476-2.476S389.548,140.031,389.548,141.398z"/>
							<path style="fill:#FFDFDF;" d="M399.63,141.398c0,1.367-1.109,2.476-2.476,2.476c-1.367,0-2.476-1.109-2.476-2.476
								c0-1.368,1.109-2.476,2.476-2.476C398.521,138.922,399.63,140.031,399.63,141.398z"/>
							<path style="fill:#FFDFDF;" d="M409.711,141.398c0,1.367-1.109,2.476-2.476,2.476s-2.476-1.109-2.476-2.476
								c0-1.368,1.109-2.476,2.476-2.476S409.711,140.031,409.711,141.398z"/>
							<path style="fill:#FFDFDF;" d="M419.793,141.398c0,1.367-1.109,2.476-2.476,2.476c-1.368,0-2.476-1.109-2.476-2.476
								c0-1.368,1.109-2.476,2.476-2.476C418.684,138.922,419.793,140.031,419.793,141.398z"/>
							<path style="fill:#FFDFDF;" d="M429.874,141.398c0,1.367-1.109,2.476-2.476,2.476c-1.368,0-2.476-1.109-2.476-2.476
								c0-1.368,1.109-2.476,2.476-2.476C428.766,138.922,429.874,140.031,429.874,141.398z"/>
							<path style="fill:#FFDFDF;" d="M439.956,141.398c0,1.367-1.109,2.476-2.476,2.476c-1.368,0-2.476-1.109-2.476-2.476
								c0-1.368,1.109-2.476,2.476-2.476C438.847,138.922,439.956,140.031,439.956,141.398z"/>
						</g>
						<g>
							<path style="fill:#FFDFDF;" d="M277.944,224.349c0,1.368-1.109,2.476-2.476,2.476c-1.368,0-2.476-1.109-2.476-2.476
								c0-1.368,1.109-2.476,2.476-2.476C276.836,221.873,277.944,222.982,277.944,224.349z"/>
							<path style="fill:#FFDFDF;" d="M288.203,224.173c0,1.367-1.109,2.476-2.476,2.476c-1.367,0-2.476-1.109-2.476-2.476
								c0-1.368,1.109-2.476,2.476-2.476C287.094,221.696,288.203,222.805,288.203,224.173z"/>
							<path style="fill:#FFDFDF;" d="M298.815,224.349c0,1.368-1.109,2.476-2.476,2.476c-1.368,0-2.476-1.109-2.476-2.476
								c0-1.368,1.109-2.476,2.476-2.476C297.706,221.873,298.815,222.982,298.815,224.349z"/>
							<path style="fill:#FFDFDF;" d="M308.896,224.349c0,1.368-1.109,2.476-2.476,2.476c-1.367,0-2.476-1.109-2.476-2.476
								c0-1.368,1.109-2.476,2.476-2.476C307.788,221.873,308.896,222.982,308.896,224.349z"/>
							<path style="fill:#FFDFDF;" d="M318.978,224.349c0,1.368-1.109,2.476-2.476,2.476c-1.368,0-2.476-1.109-2.476-2.476
								c0-1.368,1.109-2.476,2.476-2.476C317.869,221.873,318.978,222.982,318.978,224.349z"/>
							<path style="fill:#FFDFDF;" d="M329.059,224.349c0,1.368-1.109,2.476-2.476,2.476c-1.367,0-2.476-1.109-2.476-2.476
								c0-1.368,1.109-2.476,2.476-2.476C327.951,221.873,329.059,222.982,329.059,224.349z"/>
							<path style="fill:#FFDFDF;" d="M339.141,224.349c0,1.368-1.109,2.476-2.476,2.476c-1.367,0-2.476-1.109-2.476-2.476
								c0-1.368,1.109-2.476,2.476-2.476C338.032,221.873,339.141,222.982,339.141,224.349z"/>
							<path style="fill:#FFDFDF;" d="M349.223,224.349c0,1.368-1.109,2.476-2.476,2.476c-1.367,0-2.476-1.109-2.476-2.476
								c0-1.368,1.109-2.476,2.476-2.476C348.114,221.873,349.223,222.982,349.223,224.349z"/>
							<path style="fill:#FFDFDF;" d="M359.304,224.349c0,1.368-1.109,2.476-2.476,2.476c-1.367,0-2.476-1.109-2.476-2.476
								c0-1.368,1.109-2.476,2.476-2.476C358.195,221.873,359.304,222.982,359.304,224.349z"/>
							<path style="fill:#FFDFDF;" d="M369.385,224.349c0,1.368-1.109,2.476-2.476,2.476c-1.368,0-2.476-1.109-2.476-2.476
								c0-1.368,1.109-2.476,2.476-2.476C368.277,221.873,369.385,222.982,369.385,224.349z"/>
							<path style="fill:#FFDFDF;" d="M379.467,224.349c0,1.368-1.109,2.476-2.476,2.476c-1.367,0-2.476-1.109-2.476-2.476
								c0-1.368,1.109-2.476,2.476-2.476C378.358,221.873,379.467,222.982,379.467,224.349z"/>
							<path style="fill:#FFDFDF;" d="M389.548,224.349c0,1.368-1.109,2.476-2.476,2.476s-2.476-1.109-2.476-2.476
								c0-1.368,1.109-2.476,2.476-2.476S389.548,222.982,389.548,224.349z"/>
							<path style="fill:#FFDFDF;" d="M399.63,224.349c0,1.368-1.109,2.476-2.476,2.476c-1.367,0-2.476-1.109-2.476-2.476
								c0-1.368,1.109-2.476,2.476-2.476C398.521,221.873,399.63,222.982,399.63,224.349z"/>
							<path style="fill:#FFDFDF;" d="M409.711,224.349c0,1.368-1.109,2.476-2.476,2.476s-2.476-1.109-2.476-2.476
								c0-1.368,1.109-2.476,2.476-2.476S409.711,222.982,409.711,224.349z"/>
							<path style="fill:#FFDFDF;" d="M419.793,224.349c0,1.368-1.109,2.476-2.476,2.476c-1.368,0-2.476-1.109-2.476-2.476
								c0-1.368,1.109-2.476,2.476-2.476C418.684,221.873,419.793,222.982,419.793,224.349z"/>
							<path style="fill:#FFDFDF;" d="M429.874,224.349c0,1.368-1.109,2.476-2.476,2.476c-1.368,0-2.476-1.109-2.476-2.476
								c0-1.368,1.109-2.476,2.476-2.476C428.766,221.873,429.874,222.982,429.874,224.349z"/>
							<path style="fill:#FFDFDF;" d="M439.956,224.349c0,1.368-1.109,2.476-2.476,2.476c-1.368,0-2.476-1.109-2.476-2.476
								c0-1.368,1.109-2.476,2.476-2.476C438.847,221.873,439.956,222.982,439.956,224.349z"/>
						</g>
						<g>
							<path style="fill:#FFDFDF;" d="M277.06,151.48c0,1.368-1.109,2.476-2.476,2.476c-1.367,0-2.476-1.109-2.476-2.476
								c0-1.368,1.109-2.476,2.476-2.476C275.952,149.003,277.06,150.112,277.06,151.48z"/>
							<path style="fill:#FFDFDF;" d="M277.06,161.738c0,1.368-1.109,2.476-2.476,2.476c-1.367,0-2.476-1.109-2.476-2.476
								c0-1.367,1.109-2.476,2.476-2.476C275.952,159.262,277.06,160.37,277.06,161.738z"/>
							<path style="fill:#FFDFDF;" d="M277.06,171.996c0,1.368-1.109,2.476-2.476,2.476c-1.367,0-2.476-1.109-2.476-2.476
								c0-1.368,1.109-2.476,2.476-2.476C275.952,169.52,277.06,170.629,277.06,171.996z"/>
							<path style="fill:#FFDFDF;" d="M277.06,182.255c0,1.367-1.109,2.476-2.476,2.476c-1.367,0-2.476-1.109-2.476-2.476
								c0-1.368,1.109-2.476,2.476-2.476C275.952,179.779,277.06,180.887,277.06,182.255z"/>
							<path style="fill:#FFDFDF;" d="M277.06,192.513c0,1.368-1.109,2.476-2.476,2.476c-1.367,0-2.476-1.109-2.476-2.476
								c0-1.368,1.109-2.476,2.476-2.476C275.952,190.037,277.06,191.145,277.06,192.513z"/>
							<path style="fill:#FFDFDF;" d="M277.06,202.771c0,1.368-1.109,2.476-2.476,2.476c-1.367,0-2.476-1.109-2.476-2.476
								c0-1.367,1.109-2.476,2.476-2.476C275.952,200.295,277.06,201.404,277.06,202.771z"/>
							<path style="fill:#FFDFDF;" d="M277.06,213.03c0,1.367-1.109,2.476-2.476,2.476c-1.367,0-2.476-1.109-2.476-2.476
								c0-1.368,1.109-2.476,2.476-2.476C275.952,210.554,277.06,211.662,277.06,213.03z"/>
						</g>
					</g>
					<g>
						<path style="fill:#1F1541;" d="M333.776,160.529v15.653h-1.587v-12.523l-6.149,10.533h-0.783l-6.149-10.465v12.456h-1.588
							v-15.653h1.364l6.798,11.606l6.731-11.606H333.776z"/>
						<path style="fill:#1F1541;" d="M339.722,168.356c0-4.562,3.488-7.961,8.229-7.961c4.696,0,8.207,3.377,8.207,7.961
							c0,4.584-3.511,7.96-8.207,7.96C343.21,176.316,339.722,172.917,339.722,168.356z M354.503,168.356
							c0-3.735-2.795-6.485-6.552-6.485c-3.78,0-6.597,2.75-6.597,6.485c0,3.734,2.818,6.485,6.597,6.485
							C351.708,174.841,354.503,172.09,354.503,168.356z"/>
						<path style="fill:#1F1541;" d="M374.649,160.529l-6.932,15.653h-1.632l-6.932-15.653h1.789l5.993,13.596l6.038-13.596H374.649
							z"/>
						<path style="fill:#1F1541;" d="M379.142,160.529h1.655v15.653h-1.655V160.529z"/>
						<path style="fill:#1F1541;" d="M399.2,174.751v1.431H388.13v-15.653h10.734v1.431h-9.079v5.568h8.095v1.409h-8.095v5.814
							H399.2z"/>
						<path style="fill:#1F1541;" d="M304.339,188.792h-5.501v-1.431h12.657v1.431h-5.501v14.222h-1.655V188.792z"/>
						<path style="fill:#1F1541;" d="M314.758,195.187c0-4.562,3.488-7.961,8.229-7.961c4.696,0,8.207,3.377,8.207,7.961
							c0,4.584-3.511,7.961-8.207,7.961C318.247,203.148,314.758,199.749,314.758,195.187z M329.539,195.187
							c0-3.735-2.795-6.485-6.552-6.485c-3.78,0-6.597,2.75-6.597,6.485c0,3.734,2.818,6.485,6.597,6.485
							C326.744,201.672,329.539,198.921,329.539,195.187z"/>
						<path style="fill:#1F1541;" d="M350.222,187.361v15.653h-1.364l-10.063-12.702v12.702h-1.655v-15.653h1.364l10.085,12.701
							v-12.701H350.222z"/>
						<path style="fill:#1F1541;" d="M357.554,187.361h1.655v15.653h-1.655V187.361z"/>
						<path style="fill:#1F1541;" d="M377.567,195.187h1.587v5.971c-1.475,1.319-3.578,1.99-5.746,1.99
							c-4.764,0-8.252-3.376-8.252-7.961c0-4.584,3.488-7.961,8.274-7.961c2.37,0,4.428,0.76,5.814,2.259l-1.029,1.051
							c-1.319-1.297-2.885-1.833-4.718-1.833c-3.869,0-6.709,2.75-6.709,6.485c0,3.712,2.84,6.485,6.686,6.485
							c1.498,0,2.885-0.336,4.092-1.208V195.187z"/>
						<path style="fill:#1F1541;" d="M399.144,187.361v15.653h-1.632v-7.223h-9.794v7.223h-1.655v-15.653h1.655v6.977h9.794v-6.977
							H399.144z"/>
						<path style="fill:#1F1541;" d="M409.518,188.792h-5.501v-1.431h12.657v1.431h-5.501v14.222h-1.655V188.792z"/>
					</g>
				</g>
				<g>
					<path style="fill:none;stroke:#1F1541;stroke-width:1.1269;stroke-miterlimit:10;" d="M395.385,117.434
						c1.906-5.323,8.546-8.386,13.832-6.381c5.287,2.005,8.225,8.7,6.122,13.949c-1.126,2.811-4.364,5.247-7.071,3.89
						c-1.871-0.938-2.605-3.279-2.535-5.371c0.144-4.272,2.797-8.074,5.889-11.025c2.979-2.843,6.621-5.222,10.709-5.72
						c4.088-0.498,8.627,1.271,10.487,4.945c1.345,2.657,1.135,5.869,0.226,8.705c-0.784,2.448-2.774,5.107-5.299,4.625
						c-2.441-0.466-3.368-3.513-3.247-5.995c0.274-5.602,3.567-10.966,8.439-13.744c4.872-2.779,11.165-2.882,16.126-0.265"/>
					<path style="fill:none;stroke:#1F1541;stroke-width:1.1269;stroke-miterlimit:10;" d="M335.854,236.44
						c0.049,4.575,2.525,9.054,6.372,11.53c3.847,2.476,8.95,2.874,13.134,1.023c2.434-1.076,4.613-2.968,5.503-5.475
						c0.89-2.508,0.226-5.634-1.938-7.182c-2.165-1.548-5.719-0.892-6.811,1.534c-0.441,0.98-0.467,2.098-0.342,3.165
						c0.571,4.856,4.299,9.088,8.929,10.66c4.63,1.572,9.947,0.603,13.985-2.156c2.735-1.869,4.974-4.612,5.739-7.835"/>
				</g>
			</g>
		</g>
	</g>
	<g>
		<path style="fill:#FFFFFF;" d="M154.177,467.779c-2.832,0-5.704-0.114-8.537-0.337c-22.454-1.769-45.185-11.016-65.734-26.737
			c-2.001-1.531-4.002-3.159-5.972-4.859l-3.942,0.298c-0.072,0.009-0.145,0.016-0.218,0.021c-0.161,0.013-0.321,0.019-0.481,0.019
			c-2.424,0-4.669-1.48-5.577-3.821l-4.264-10.989c-12.819-14.799-21.786-31.181-25.961-47.44
			c-4.839-18.848-2.907-37.018,5.588-52.546c4.127-7.544,15.769-25.715,34.693-31.515c4.418-1.354,9.062-2.041,13.803-2.041
			c7.241,0,14.469,1.628,20.903,4.708c5.674,2.716,10.568,6.405,15.301,9.972c1.884,1.419,3.696,2.785,5.517,4.064
			c1.141-0.448,2.118-0.834,2.908-1.148c0.702-0.689,1.559-1.213,2.521-1.529c0.622-0.209,1.317-0.322,2.021-0.322
			c2.803,0,5.278,1.789,6.157,4.451l1.884,5.724c2.535,0.489,5.265,0.729,8.267,0.729c5.913,0,12.006-0.907,18.456-1.867
			c6.678-0.994,13.583-2.021,20.543-2.021c4.03,0,7.695,0.339,11.202,1.037c9.612,1.91,19.015,6.762,27.948,14.419
			c12.071,10.347,20.184,23.404,22.845,36.764c1.706,8.565,1.377,18.149-0.977,28.487c-10.253,45.027-50.922,76.479-98.891,76.479
			C154.176,467.779,154.18,467.779,154.177,467.779z"/>
		<g>
			<path style="fill:#F25553;" d="M40.13,373.341c6.38,24.848,24.436,48.341,44.255,63.504
				c18.221,13.941,39.512,23.707,62.568,25.524c47.367,3.734,90.698-25.723,101.123-71.504c1.933-8.488,2.657-17.379,0.943-25.989
				c-2.586-12.988-10.649-24.626-20.87-33.388c-7.26-6.224-15.835-11.228-25.22-13.093c-21.418-4.258-44.173,8.075-64.651,0.402
				c-11.692-4.381-20.279-14.571-31.543-19.963c-9.414-4.506-20.515-5.363-30.368-2.343c-13.532,4.147-24.627,16.658-31.195,28.665
				C36.768,340.519,35.99,357.216,40.13,373.341z"/>
			<g>
				<g>
					
						<ellipse transform="matrix(0.5111 -0.8595 0.8595 0.5111 -197.4298 352.9408)" style="fill:#FFDFDF;" cx="211.546" cy="350.026" rx="15.714" ry="15.714"/>
					<circle style="fill:#FFDFDF;" cx="79.775" cy="329.819" r="15.714"/>
					
						<ellipse transform="matrix(0.9279 -0.3727 0.3727 0.9279 -153.4071 75.67)" style="fill:#FFDFDF;" cx="119.001" cy="434.59" rx="15.714" ry="15.714"/>
				</g>
				<g>
					<g>
						<path style="fill:#FF9CD4;" d="M54.299,338.935l12.897,51.633l25.744-6.746l1.122,4.38c0,0,55.05-12.11,84.501-25.098
							l-17.171-40.087l-17.925,5.605l-5.881-17.664C137.585,310.958,76.898,335.384,54.299,338.935z"/>
						
							<path style="fill:none;stroke:#1F1541;stroke-width:0.9976;stroke-linecap:round;stroke-linejoin:round;stroke-miterlimit:10;" d="
							M67.196,390.568c0,0,56.291-12.293,86.126-31.824l-15.736-47.785"/>
						
							<path style="fill:none;stroke:#1F1541;stroke-width:0.9976;stroke-linecap:round;stroke-linejoin:round;stroke-miterlimit:10;" d="
							M61.731,342.35l9.469,40.364c0,0,40.4-8.023,72.008-25.468l-12.287-37.866C130.921,319.38,81.225,338.397,61.731,342.35z"/>
						<g>
							<path style="fill:#1F1541;" d="M77.246,351.168l-2.353,0.781l-0.203-0.613l5.413-1.798l0.203,0.613l-2.353,0.781l2.021,6.082
								l-0.707,0.236L77.246,351.168z"/>
							<path style="fill:#1F1541;" d="M82.184,348.847l0.708-0.235l2.224,6.695l-0.708,0.235L82.184,348.847z"/>
							<path style="fill:#1F1541;" d="M86.544,351.116c-0.651-1.961,0.361-3.9,2.379-4.57c0.976-0.324,1.964-0.291,2.772,0.162
								l-0.3,0.599c-0.73-0.373-1.478-0.391-2.244-0.136c-1.616,0.537-2.437,2.126-1.91,3.714c0.528,1.587,2.136,2.369,3.752,1.833
								c0.765-0.254,1.356-0.715,1.713-1.461l0.599,0.301c-0.377,0.848-1.146,1.474-2.131,1.801
								C89.167,354.025,87.196,353.077,86.544,351.116z"/>
							<path style="fill:#1F1541;" d="M97.106,347.831l-0.907,1.84l0.585,1.759l-0.708,0.236l-2.224-6.695l0.708-0.236l1.344,4.046
								l2.587-5.352l0.813-0.27l-1.891,3.994l4.315,2.634l-0.842,0.28L97.106,347.831z"/>
							<path style="fill:#1F1541;" d="M108.356,346.908l0.203,0.612l-4.734,1.572l-2.224-6.695l4.591-1.525l0.203,0.613l-3.883,1.29
								l0.791,2.381l3.463-1.15l0.2,0.603l-3.462,1.15l0.825,2.486L108.356,346.908z"/>
							<path style="fill:#1F1541;" d="M110.455,340.137l-2.353,0.781l-0.203-0.613l5.413-1.798l0.203,0.613l-2.353,0.781
								l2.021,6.082l-0.707,0.235L110.455,340.137z"/>
							<path style="fill:#1F1541;" d="M116.6,343.947l0.096-0.638c0.634,0.31,1.599,0.371,2.479,0.079
								c1.253-0.416,1.623-1.122,1.404-1.782c-0.61-1.837-4.357,0.66-5.18-1.817c-0.327-0.984,0.155-2.089,1.857-2.655
								c0.756-0.25,1.613-0.291,2.272-0.095l-0.052,0.643c-0.698-0.182-1.428-0.142-2.021,0.055
								c-1.224,0.407-1.588,1.133-1.366,1.802c0.61,1.837,4.364-0.642,5.173,1.797c0.327,0.986-0.177,2.087-1.889,2.656
								C118.371,344.324,117.269,344.298,116.6,343.947z"/>
							<path style="fill:#1F1541;" d="M87.513,359.81l2.224,6.695l-0.679,0.225l-1.779-5.356l-1.133,5.379l-0.335,0.111
								l-4.116-3.601l1.769,5.326l-0.679,0.225l-2.224-6.695l0.583-0.194l4.557,3.998l1.229-5.919L87.513,359.81z"/>
							<path style="fill:#1F1541;" d="M91.161,362.315c-0.648-1.95,0.36-3.901,2.388-4.574c2.008-0.667,3.989,0.279,4.641,2.239
								c0.651,1.96-0.371,3.904-2.379,4.571C93.784,365.224,91.809,364.267,91.161,362.315z M97.482,360.216
								c-0.531-1.597-2.117-2.377-3.724-1.843c-1.616,0.537-2.431,2.114-1.9,3.711c0.53,1.597,2.126,2.373,3.742,1.836
								C97.208,363.386,98.012,361.813,97.482,360.216z"/>
							<path style="fill:#1F1541;" d="M104.981,354.008l-0.741,7.68l-0.698,0.232l-5.189-5.71l0.765-0.254l4.494,4.963l0.651-6.672
								L104.981,354.008z"/>
							<path style="fill:#1F1541;" d="M106.897,353.372l0.707-0.236l2.224,6.695l-0.707,0.236L106.897,353.372z"/>
							<path style="fill:#1F1541;" d="M117.493,356.606l0.203,0.612l-4.734,1.572l-2.224-6.695l4.591-1.525l0.203,0.612
								l-3.883,1.289l0.791,2.382l3.462-1.15l0.2,0.603l-3.462,1.15l0.826,2.486L117.493,356.606z"/>
							<path style="fill:#1F1541;" d="M119.401,355.75l0.096-0.638c0.634,0.31,1.599,0.371,2.479,0.079
								c1.253-0.416,1.624-1.123,1.404-1.783c-0.61-1.836-4.357,0.66-5.18-1.816c-0.327-0.985,0.155-2.091,1.857-2.656
								c0.756-0.251,1.613-0.291,2.272-0.095l-0.052,0.643c-0.698-0.182-1.428-0.141-2.021,0.056
								c-1.224,0.406-1.588,1.133-1.366,1.802c0.61,1.836,4.363-0.642,5.173,1.796c0.327,0.985-0.177,2.087-1.889,2.656
								C121.172,356.127,120.07,356.099,119.401,355.75z"/>
						</g>
					</g>
					<g>
						<g>
							<g>
								<path style="fill:#5352ED;" d="M148.844,445.362c-5.331,0.222-9.851-1.357-13.59-3.77c-3.844-2.48-6.857-5.829-9.119-9.004
									c-3.406-4.792-5.088-9.2-5.242-9.61l3.194-1.181c0.036,0.091,2.012,5.257,6.047,10.331
									c4.063,5.134,10.226,10.177,18.568,9.832c9.173-0.377,14.48-7.639,17.403-14.034c2.307-5.104,3.107-9.654,3.125-9.764
									l3.365,0.564c-0.063,0.391-0.722,4.155-2.542,8.735C167.046,435.032,160.839,444.861,148.844,445.362z"/>
							</g>
							<path style="fill:#1F1541;" d="M124.087,421.798c0.036,0.091,2.012,5.257,6.047,10.331l-3.998,0.46
								c-3.406-4.792-5.088-9.2-5.242-9.61L124.087,421.798z"/>
							<path style="fill:#1F1541;" d="M170.052,427.461l-3.948,0.466c2.307-5.104,3.107-9.654,3.125-9.764l3.365,0.564
								C172.531,419.117,171.873,422.881,170.052,427.461z"/>
						</g>
						<g>
							<g>
								<path style="fill:#5352ED;" d="M222.798,419.559l-3.96,0.296l-1.22,0.091L70.162,431.087
									c-0.006,0.01-0.016,0.003-0.016,0.003l-6.61-17.017c0.012-0.019,0.022-0.013,0.022-0.013
									c1.492-1.307,95.748-59.647,122.176-76.005c0.399-0.242,0.767-0.478,1.123-0.694c3.638-2.246,5.709-3.531,5.709-3.531
									s5.107,1.863,11.646,5.987c0.178,0.101,0.359,0.218,0.54,0.335C221.225,350.7,246.024,375.225,222.798,419.559z"/>
								<path style="fill:#1F1541;" d="M63.532,414.069c0,0,6.715-2.067,9.95,6.764c3.06,8.355-3.343,10.26-3.343,10.26
									L63.532,414.069z"/>
							</g>
							<g>
								<path style="fill:#1F1541;" d="M204.75,340.154L71.108,416.636l-2.316,1.329l-0.278-0.49l2.207-1.264l133.49-76.392
									C204.388,339.92,204.569,340.037,204.75,340.154z"/>
							</g>
						</g>
						<g>
							<g>
								<path style="fill:#1F1541;" d="M106.059,403.601l4.763-1.508c3.744-1.186,7.029,0.421,8.118,3.866
									c1.09,3.442-0.671,6.646-4.415,7.832l-4.763,1.508L106.059,403.601z M114.119,412.743c3.108-0.984,4.489-3.592,3.601-6.399
									c-0.889-2.808-3.519-4.145-6.627-3.161l-3.459,1.094l3.027,9.56L114.119,412.743z"/>
								<path style="fill:#1F1541;" d="M121.54,398.699l1.237-0.39l3.703,11.698l-1.237,0.39L121.54,398.699z"/>
								<path style="fill:#1F1541;" d="M139.953,405.741l-3.864-2.912c-0.291,0.128-0.585,0.24-0.92,0.346l-3.141,0.994l1.174,3.71
									l-1.237,0.392l-3.703-11.698l4.378-1.386c2.975-0.942,5.256-0.01,6.049,2.496c0.583,1.841,0.02,3.432-1.51,4.524
									l4.128,3.105L139.953,405.741z M137.452,398.074c-0.592-1.871-2.168-2.549-4.506-1.808l-3.109,0.983l1.857,5.865
									l3.109-0.983C137.14,401.39,138.035,399.914,137.452,398.074z"/>
								<path style="fill:#1F1541;" d="M153.658,400.224l0.338,1.07l-8.272,2.618l-3.703-11.698l8.021-2.54l0.338,1.07l-6.784,2.148
									l1.318,4.161l6.049-1.915l0.333,1.052l-6.05,1.916l1.376,4.344L153.658,400.224z"/>
								<path style="fill:#1F1541;" d="M155.627,394.344c-1.085-3.426,0.723-6.776,4.249-7.892c1.705-0.54,3.422-0.457,4.819,0.35
									l-0.538,1.034c-1.259-0.667-2.561-0.716-3.898-0.292c-2.824,0.895-4.29,3.639-3.411,6.412
									c0.878,2.774,3.656,4.174,6.48,3.281c1.338-0.423,2.375-1.212,3.016-2.5l1.033,0.537c-0.675,1.464-2.027,2.536-3.75,3.082
									C160.117,399.468,156.712,397.769,155.627,394.344z"/>
								<path style="fill:#1F1541;" d="M170.965,384.229l-4.111,1.3l-0.339-1.068l9.459-2.995l0.339,1.07l-4.111,1.301l3.365,10.628
									l-1.237,0.392L170.965,384.229z"/>
								<path style="fill:#1F1541;" d="M180.272,386.542c-1.08-3.409,0.723-6.776,4.265-7.897c3.51-1.111,6.932,0.582,8.017,4.009
									c1.084,3.425-0.74,6.779-4.249,7.891C184.761,391.665,181.35,389.95,180.272,386.542z M191.317,383.045
									c-0.884-2.791-3.624-4.186-6.43-3.296c-2.825,0.894-4.281,3.617-3.397,6.408c0.883,2.79,3.64,4.179,6.465,3.286
									C190.762,388.552,192.2,385.835,191.317,383.045z"/>
								<path style="fill:#1F1541;" d="M206.845,384.563l-3.863-2.913c-0.291,0.128-0.586,0.241-0.92,0.347l-3.141,0.994l1.174,3.71
									l-1.237,0.392l-3.703-11.698l4.378-1.386c2.975-0.942,5.256-0.01,6.049,2.496c0.583,1.841,0.02,3.433-1.509,4.523
									l4.128,3.105L206.845,384.563z M204.344,376.897c-0.591-1.872-2.167-2.55-4.505-1.809l-3.109,0.983l1.857,5.866l3.109-0.983
									C204.034,380.212,204.929,378.735,204.344,376.897z"/>
							</g>
							<g>
								<path style="fill:#FFDFDF;" d="M192.818,408.165l18.838-3.125c2.646-0.439,5.154,1.326,5.634,3.965l0.16,0.88
									c0.507,2.786-1.442,5.423-4.255,5.755l-18.998,2.245c-2.749,0.325-5.223-1.686-5.467-4.443l0,0
									C188.504,410.885,190.285,408.585,192.818,408.165z"/>
								<path style="fill:#FFDFDF;" d="M183.939,414.668L183.939,414.668c0.28,2.493-1.454,4.765-3.932,5.154l-2.342,0.367
									c-2.938,0.461-5.557-1.896-5.408-4.867l0.006-0.109c0.115-2.298,1.881-4.172,4.167-4.424l2.337-0.258
									C181.337,410.246,183.651,412.098,183.939,414.668z"/>
							</g>
							<g>
								<path style="fill:#1F1541;" d="M218.838,419.854l-1.22,0.091c2.631-8.056,8.584-29.951,2.244-47.618
									c-4.377-12.186-14.755-21.583-23.18-27.559c-0.165-0.12-0.337-0.231-0.503-0.351c-4.535-3.169-8.44-5.324-10.445-6.361
									c0.399-0.242,0.767-0.478,1.123-0.694c2.234,1.185,6.061,3.357,10.412,6.434c0.165,0.12,0.331,0.241,0.497,0.361
									c8.48,6.079,18.773,15.544,23.161,27.777C227.27,389.616,221.576,411.34,218.838,419.854z"/>
							</g>
						</g>
					</g>
				</g>
				<g>
					<path style="fill:none;stroke:#1F1541;stroke-width:1.1269;stroke-miterlimit:10;" d="M66.329,326.926
						c-0.101-3.404,1.218-6.886,3.761-9.151c2.543-2.265,6.317-3.164,9.522-2.015s5.603,4.429,5.452,7.83
						c-0.025,0.561-0.162,1.195-0.648,1.475c-0.709,0.41-1.57-0.215-2.075-0.86c-3.127-3.998-2.274-10.311,1.394-13.82
						c3.668-3.509,9.5-4.235,14.219-2.367"/>
					<path style="fill:none;stroke:#1F1541;stroke-width:1.1269;stroke-miterlimit:10;" d="M151.456,433.915
						c1.688,3.691,4.797,6.778,8.624,8.128c3.827,1.35,8.336,0.838,11.58-1.601c1.707-1.283,3.105-3.286,2.864-5.408
						c-0.242-2.122-2.767-3.895-4.609-2.814c-0.568,0.333-0.991,0.873-1.287,1.461c-1.242,2.468-0.177,5.677,1.987,7.394
						c2.164,1.717,5.148,2.117,7.873,1.662c5.431-0.906,10.411-5.892,9.716-11.355c-0.193-1.518-0.86-3.053-2.126-3.913
						s-3.19-0.82-4.172,0.354c-1.2,1.434-0.504,3.675,0.691,5.113c2.253,2.71,6.13,3.951,9.539,3.053
						c3.408-0.898,6.17-3.888,6.796-7.357"/>
					<path style="fill:none;stroke:#1F1541;stroke-width:1.1269;stroke-miterlimit:10;" d="M158.895,337.086
						c0.662-3.675,3.144-7.105,6.654-8.377c3.511-1.272,7.923,0.003,9.799,3.231c0.827,1.423,1.122,3.26,0.348,4.712
						c-0.773,1.452-2.81,2.225-4.181,1.315c-1.244-3.52-0.18-7.631,2.284-10.436c2.464-2.805,6.157-4.363,9.878-4.673
						c2.439-0.203,5.039,0.144,6.994,1.617c1.955,1.472,3.026,4.278,1.969,6.485c-0.506,1.057-1.847,1.929-2.818,1.272
						c-0.506-0.342-0.718-0.988-0.764-1.597c-0.218-2.886,2.546-5.216,5.353-5.922c5.363-1.348,11.482,1.832,13.463,6.994"/>
				</g>
			</g>
		</g>
	</g>
	<g>
		<path style="fill:#FFFFFF;" d="M369.648,472.165c-6.067,0-11.713-2.784-15.407-7.441c-12.974-1.277-25.157-4.556-35.396-9.541
			c-4.173-2.031-8.088-4.371-11.665-6.973h-18.903c-3.904,0-7.08-3.176-7.08-7.081v-22.828h-6.593c-2.361,0-4.404-1.368-5.378-3.354
			h-2.449c-3.306,0-5.986-2.68-5.986-5.986v-7.827c0-3.306,2.68-5.986,5.986-5.986h2.595c1.023-1.835,2.983-3.075,5.232-3.075h5.491
			c0.097-2.429,0.352-4.781,0.765-7.05c-12.567-7.032-20.441-20.25-20.441-34.95c0-22.105,17.983-40.088,40.088-40.088
			c16.846,0,31.298,10.446,37.221,25.199c3.611-9.084,10.489-16.633,19.576-21.092l24.838-28.585c1.146-1.319,2.8-2.06,4.518-2.06
			c0.307,0,0.617,0.023,0.925,0.072c0.216,0.034,5.039,0.809,12.47,3.602c1.209-0.252,2.388-0.469,3.521-0.647
			c3.839-0.612,7.712-0.923,11.502-0.923c10.439,0,20.235,2.379,28.331,6.88c7.12,3.972,13.716,9.983,19.613,17.87
			c4.067,5.434,7.499,11.293,10.225,17.452c7.619,2.797,12.857,10.083,12.857,18.444c0,5.088-1.911,9.838-5.334,13.456
			c0.306,6.299-0.038,12.651-1.027,18.923c-0.654,4.117-1.582,8.206-2.76,12.159c-0.295,1.016-0.641,2.108-1.046,3.301
			c-0.582,1.732-1.217,3.459-1.881,5.108c-3.663,9.167-8.725,17.748-15.041,25.491c-1.898,2.339-3.967,4.656-6.14,6.871
			c-0.126,0.133-0.314,0.323-0.502,0.512c-14.814,14.882-35.002,25.397-58.452,30.477c-2.631,0.569-5.423,1.067-8.33,1.484
			C381.935,469.037,375.986,472.165,369.648,472.165z"/>
		<g>
			<path style="fill:#EEA36D;" d="M474.306,377.498c-0.324,2.052-2.713,2.458-4.403,2.751c-2.324,0.403-4.701,0.616-5.952,2.887
				c-0.561,1.018-0.867,2.155-1.359,3.208c-0.774,1.659-2.016,3.098-3.545,4.106c-1.011,0.667-2.161,1.164-2.976,2.06
				c-0.825,0.908-1.213,2.123-1.515,3.312c-0.835,3.277-1.203,6.653-1.87,9.969c-0.738,3.669-1.891,7.36-4.283,10.307
				c-1.806,2.225,2.719,8.987,0.673,11.072c-0.18,0.19-0.359,0.369-0.539,0.549c-15.074,15.144-34.687,24.292-55.408,28.781
				c-22.536,4.878-49.881,3.532-71.19-6.844c-13.837-6.734-25.12-17.269-30.916-32.383c-4.519-11.812-6.684-27.105-1.506-39.117
				c3.761-8.739,11.014-16.042,19.813-19.972c10.545-4.709,22.855-4.659,32.931-10.266c5.577-3.112,9.886-7.572,13.677-12.61
				c0.868-1.177,1.726-2.374,2.554-3.601c0.609-0.898,1.207-1.806,1.806-2.724c0.698-1.087,1.387-2.175,2.075-3.282
				c0.688-1.097,1.367-2.195,2.045-3.292c4.669-7.472,9.457-14.864,16.251-20.252c0.628-0.499,1.257-0.968,1.915-1.417
				c1.626-1.147,3.332-2.165,5.098-3.063c0.818-0.419,1.646-0.818,2.484-1.187c1.536-0.688,3.123-1.287,4.739-1.826
				c1.686-0.559,3.412-1.048,5.148-1.457c1.636-0.379,3.282-0.708,4.928-0.968c12.281-1.955,25.3-0.668,35.994,5.277
				c7.083,3.951,12.909,9.777,17.728,16.221C472.86,332.655,477.768,355.54,474.306,377.498z"/>
			<g>
				
					<ellipse transform="matrix(0.9252 -0.3795 0.3795 0.9252 -120.8257 157.2893)" style="fill:#FFDFDF;" cx="338.537" cy="385.108" rx="13.682" ry="13.682"/>
				
					<ellipse transform="matrix(0.9497 -0.3132 0.3132 0.9497 -84.8948 163.6562)" style="fill:#FFDFDF;" cx="466.912" cy="346.052" rx="13.682" ry="13.682"/>
				
					<ellipse transform="matrix(0.9926 -0.1218 0.1218 0.9926 -52.3327 48.4402)" style="fill:#FFDFDF;" cx="370.121" cy="452.352" rx="13.682" ry="13.682"/>
			</g>
			<g>
				<g>
					<path style="fill:#1F1541;" d="M471.722,388.881c-0.299,1.027-0.629,2.055-0.978,3.083c-0.539,1.606-1.127,3.212-1.766,4.798
						c-1.458,3.648-14.512,0.409-16.458,3.883c-2.583,4.611,5.757,15.861,2.332,20.06c-1.806,2.225-3.731,4.38-5.776,6.465
						l-35.665,5.946c0,0,9.517-16.481-5.537-46.22c-11.672-23.045-39.855-43.536-51.936-51.587
						c-3.502-2.335-5.656-3.621-5.656-3.621l7.422-8.53l6.714-0.748l21.1-2.334l-2.933-19.334l-0.808-5.287l5.357-6.165
						c0,0,5.038,0.788,12.919,3.921c14.775,5.846,39.536,19.893,59.708,52.265c7.033,11.283,11.602,22.167,14.545,32.024
						C473.698,381.329,472.84,385.13,471.722,388.881z"/>
					<path style="fill:#FFDFDF;" d="M468.979,396.762c-3.392,8.49-8.121,16.581-14.126,23.943l-28.542,4.22
						c0,0,3.013-16.052-8.081-39.755c-2.674-5.706-6.155-11.842-10.695-18.316c-4.559-6.495-9.427-12.211-14.316-17.209
						c-11.423-11.682-22.965-19.424-30.846-23.943c-1.746-1.008-3.322-1.846-4.669-2.544l24.073-27.704
						c1.586,0.559,3.591,1.297,5.906,2.225c9.817,3.931,25.34,11.283,39.676,22.935c9.378,7.622,18.236,17.069,24.681,28.602
						c3.651,6.534,6.574,12.77,8.919,18.636C465.427,379.005,467.782,388.811,468.979,396.762z"/>
				</g>
				<g>
					<path style="fill:none;stroke:#1F1541;stroke-width:1.0955;stroke-miterlimit:10;" d="M409.468,389.844
						c17.136-9.575,35.339-17.238,54.163-22.803"/>
					<path style="fill:none;stroke:#1F1541;stroke-width:1.0955;stroke-miterlimit:10;" d="M388.369,354.738
						c13.216-14.248,28.101-26.947,44.253-37.754"/>
				</g>
				<path style="fill:#FFDFDF;" d="M419.783,412.318c1.318-0.586,2.86,0.008,3.446,1.325c0.586,1.318-0.008,2.86-1.325,3.446
					c-1.317,0.586-2.86-0.008-3.446-1.325C417.872,414.446,418.466,412.904,419.783,412.318z"/>
				<path style="fill:#FFDFDF;" d="M417.681,400.702c1.318-0.586,2.86,0.008,3.446,1.325c0.586,1.317-0.008,2.86-1.325,3.446
					s-2.86-0.008-3.446-1.325C415.77,402.83,416.364,401.288,417.681,400.702z"/>
				<path style="fill:#FFDFDF;" d="M414.576,390.042c1.318-0.586,2.86,0.008,3.446,1.325c0.586,1.317-0.008,2.86-1.325,3.446
					c-1.318,0.586-2.86-0.008-3.446-1.325C412.665,392.171,413.259,390.628,414.576,390.042z"/>
				<path style="fill:#FFDFDF;" d="M410.581,380.594c1.318-0.586,2.86,0.008,3.446,1.325c0.586,1.318-0.008,2.86-1.325,3.446
					c-1.318,0.586-2.86-0.008-3.446-1.325C408.67,382.723,409.264,381.18,410.581,380.594z"/>
				<path style="fill:#FFDFDF;" d="M405.469,371.847c1.318-0.586,2.86,0.008,3.446,1.325s-0.008,2.86-1.325,3.446
					c-1.317,0.586-2.86-0.008-3.446-1.325C403.558,373.975,404.151,372.432,405.469,371.847z"/>
				<path style="fill:#FFDFDF;" d="M399.012,363.289c1.318-0.586,2.86,0.008,3.446,1.325c0.586,1.318-0.008,2.86-1.325,3.446
					c-1.318,0.586-2.86-0.008-3.446-1.325C397.102,365.417,397.695,363.874,399.012,363.289z"/>
				<path style="fill:#FFDFDF;" d="M392.272,355.469c1.318-0.586,2.86,0.008,3.446,1.325s-0.008,2.86-1.325,3.446
					c-1.317,0.586-2.86-0.008-3.446-1.325S390.954,356.055,392.272,355.469z"/>
				<path style="fill:#FFDFDF;" d="M385.21,347.384c1.318-0.586,2.86,0.008,3.446,1.325c0.586,1.318-0.008,2.86-1.325,3.446
					s-2.86-0.008-3.446-1.325C383.299,349.513,383.892,347.97,385.21,347.384z"/>
				<path style="fill:#FFDFDF;" d="M377.011,340.417c1.318-0.586,2.86,0.008,3.446,1.325s-0.008,2.86-1.325,3.446
					c-1.317,0.586-2.86-0.008-3.446-1.325S375.694,341.002,377.011,340.417z"/>
				<path style="fill:#FFDFDF;" d="M368.756,334.699c1.318-0.586,2.86,0.008,3.446,1.325c0.586,1.318-0.008,2.86-1.325,3.446
					s-2.86-0.008-3.446-1.325C366.845,336.827,367.438,335.284,368.756,334.699z"/>
				<path style="fill:#FFDFDF;" d="M360.037,329.085c1.318-0.586,2.86,0.008,3.446,1.325c0.586,1.318-0.008,2.861-1.325,3.446
					c-1.318,0.586-2.86-0.008-3.446-1.326C358.126,331.213,358.719,329.671,360.037,329.085z"/>
				<path style="fill:#FFDFDF;" d="M469.172,377.205c1.318-0.586,2.861,0.008,3.446,1.325c0.586,1.318-0.008,2.86-1.325,3.446
					c-1.318,0.586-2.86-0.008-3.446-1.325C467.261,379.333,467.854,377.79,469.172,377.205z"/>
				<path style="fill:#FFDFDF;" d="M465.574,366.356c1.318-0.586,2.86,0.008,3.446,1.325c0.586,1.318-0.008,2.861-1.325,3.446
					s-2.86-0.008-3.446-1.325C463.664,368.484,464.257,366.941,465.574,366.356z"/>
				<path style="fill:#FFDFDF;" d="M460.973,356.004c1.318-0.586,2.86,0.008,3.446,1.325c0.586,1.318-0.008,2.86-1.325,3.446
					s-2.86-0.008-3.446-1.325C459.063,358.132,459.656,356.589,460.973,356.004z"/>
				<path style="fill:#FFDFDF;" d="M455.804,345.751c1.318-0.586,2.86,0.008,3.446,1.325c0.586,1.318-0.008,2.86-1.325,3.446
					c-1.318,0.586-2.86-0.008-3.446-1.325C453.893,347.879,454.487,346.336,455.804,345.751z"/>
				<path style="fill:#FFDFDF;" d="M449.84,336.464c1.318-0.586,2.86,0.008,3.446,1.325c0.586,1.317-0.008,2.86-1.325,3.446
					c-1.318,0.586-2.86-0.008-3.446-1.325C447.929,338.592,448.523,337.049,449.84,336.464z"/>
				<path style="fill:#FFDFDF;" d="M442.726,327.688c1.318-0.586,2.86,0.008,3.446,1.325c0.586,1.318-0.008,2.86-1.325,3.446
					c-1.318,0.586-2.86-0.008-3.446-1.325C440.815,329.816,441.408,328.274,442.726,327.688z"/>
				<path style="fill:#FFDFDF;" d="M434.717,319.31c1.318-0.586,2.86,0.008,3.446,1.325c0.586,1.318-0.008,2.861-1.325,3.446
					c-1.318,0.585-2.86-0.008-3.446-1.326C432.806,321.438,433.399,319.895,434.717,319.31z"/>
				<path style="fill:#FFDFDF;" d="M426.608,311.741c1.318-0.586,2.86,0.008,3.446,1.325c0.586,1.318-0.008,2.86-1.325,3.446
					c-1.318,0.586-2.86-0.008-3.446-1.325C424.697,313.87,425.291,312.327,426.608,311.741z"/>
				<path style="fill:#FFDFDF;" d="M417.825,305.926c1.318-0.586,2.86,0.008,3.446,1.325c0.586,1.318-0.008,2.86-1.325,3.446
					s-2.86-0.008-3.446-1.325S416.508,306.512,417.825,305.926z"/>
				<path style="fill:#FFDFDF;" d="M408.737,300.629c1.318-0.586,2.86,0.008,3.446,1.325c0.586,1.317-0.008,2.86-1.325,3.446
					c-1.318,0.586-2.86-0.008-3.446-1.325C406.826,302.758,407.419,301.215,408.737,300.629z"/>
				<path style="fill:#FFDFDF;" d="M399.379,295.759c1.318-0.586,2.86,0.008,3.446,1.325c0.586,1.318-0.008,2.86-1.325,3.446
					c-1.317,0.586-2.86-0.008-3.446-1.326S398.061,296.344,399.379,295.759z"/>
				<path style="fill:#FFDFDF;" d="M391.256,292.635c1.318-0.586,2.86,0.008,3.446,1.325c0.586,1.318-0.008,2.86-1.325,3.446
					c-1.318,0.586-2.86-0.008-3.446-1.325C389.345,294.763,389.939,293.22,391.256,292.635z"/>
			</g>
			<g>
				<g>
					
						<ellipse transform="matrix(0.7071 -0.7071 0.7071 0.7071 -159.2818 315.3169)" style="fill:#5352ED;" cx="300.98" cy="349.929" rx="34.102" ry="34.102"/>
					
						<ellipse transform="matrix(0.2332 -0.9724 0.9724 0.2332 -52.3732 633.4426)" style="fill:#5352ED;" cx="375.448" cy="349.929" rx="34.102" ry="34.102"/>
				</g>
				<path style="fill:#5352ED;" d="M384.675,442.079h-95.924c-0.605,0-1.095-0.49-1.095-1.095v-54.274
					c0-0.605,0.49-1.095,1.095-1.095h95.924c0.605,0,1.095,0.49,1.095,1.095v54.274C385.77,441.589,385.279,442.079,384.675,442.079
					z"/>
				
					<rect x="290.731" y="389.062" style="fill:none;stroke:#1F1541;stroke-width:1.0948;stroke-miterlimit:10;" width="92.243" height="50.314"/>
				<g>
					<path style="fill:#1F1541;" d="M388.914,412.169H275.078v-14.256h113.836c1.814,0,3.284,1.47,3.284,3.284v7.687
						C392.199,410.699,390.728,412.169,388.914,412.169z"/>
					<g>
						<path style="fill:none;stroke:#FFDFDF;stroke-width:1.0948;stroke-miterlimit:10;" d="M332.66,408.536h-30.748
							c-1.853,0-3.354-1.502-3.354-3.354v0c0-1.853,1.502-3.354,3.354-3.354h30.748c1.853,0,3.354,1.502,3.354,3.354v0
							C336.014,407.034,334.512,408.536,332.66,408.536z"/>
						<g>
							<path style="fill:none;stroke:#FFDFDF;stroke-width:1.0948;stroke-miterlimit:10;" d="M353.345,405.088
								c0,1.955-1.585,3.541-3.541,3.541c-1.955,0-3.541-1.585-3.541-3.541c0-1.956,1.585-3.541,3.541-3.541
								C351.759,401.547,353.345,403.133,353.345,405.088z"/>
							<path style="fill:none;stroke:#FFDFDF;stroke-width:1.0948;stroke-miterlimit:10;" d="M365.457,405.088
								c0,1.955-1.585,3.541-3.541,3.541c-1.955,0-3.541-1.585-3.541-3.541c0-1.956,1.585-3.541,3.541-3.541
								C363.872,401.547,365.457,403.133,365.457,405.088z"/>
						</g>
					</g>
					<rect x="267.251" y="400.988" style="fill:#1F1541;" width="15.374" height="7.827"/>
				</g>
				<g>
					<g>
						<polygon style="fill:#5352ED;" points="430.218,374.439 430.218,432.858 426.572,431.785 425.477,431.457 389.404,420.837 
							389.404,388.967 425.477,376.125 426.572,375.742 						"/>
					</g>
					<g>
						<polygon style="fill:#1F1541;" points="426.572,375.742 426.572,431.785 425.477,431.457 425.477,376.125 						"/>
					</g>
				</g>
				<g>
					<circle style="fill:none;stroke:#1F1541;stroke-width:1.0948;stroke-miterlimit:10;" cx="301.912" cy="348.997" r="24.971"/>
					<circle style="fill:none;stroke:#1F1541;stroke-width:1.0948;stroke-miterlimit:10;" cx="376.266" cy="348.997" r="24.971"/>
				</g>
				<path style="fill:none;stroke:#1F1541;stroke-width:1.0948;stroke-miterlimit:10;" d="M307.503,347.599
					c0,2.624-2.128,4.752-4.752,4.752c-2.624,0-4.752-2.128-4.752-4.752c0-2.624,2.128-4.752,4.752-4.752
					C305.375,342.847,307.503,344.975,307.503,347.599z"/>
				<path style="fill:none;stroke:#1F1541;stroke-width:1.0948;stroke-miterlimit:10;" d="M380.924,347.599
					c0,2.624-2.127,4.752-4.752,4.752c-2.624,0-4.752-2.128-4.752-4.752c0-2.624,2.128-4.752,4.752-4.752
					C378.797,342.847,380.924,344.975,380.924,347.599z"/>
			</g>
			<g>
				<path style="fill:none;stroke:#1F1541;stroke-width:1.1269;stroke-miterlimit:10;" d="M357.251,437.079
					c-0.248,2.876,0.014,5.853,1.221,8.475c1.207,2.622,3.448,4.85,6.233,5.612c2.784,0.762,6.067-0.162,7.723-2.526
					c0.762-1.088,1.154-2.532,0.658-3.764c-0.496-1.232-2.077-2.025-3.242-1.388c-1.275,0.698-1.374,2.516-0.952,3.906
					c1.292,4.252,6.019,6.987,10.435,6.487c2.521-0.286,4.951-1.52,6.549-3.491c1.597-1.971,2.302-4.676,1.719-7.146
					c-0.28-1.185-1.095-2.469-2.313-2.461c-1.532,0.01-2.232,2.009-1.954,3.516c0.606,3.292,3.708,5.671,6.965,6.442
					c3.307,0.784,7.33-0.094,8.986-3.062c0.605-1.084,0.838-2.339,0.912-3.578c0.154-2.581-0.358-5.2-1.472-7.533"/>
				<path style="fill:none;stroke:#1F1541;stroke-width:1.1269;stroke-miterlimit:10;" d="M422.158,301.357
					c1.153-2.017,3.208-3.496,5.488-3.948c2.279-0.452,4.743,0.13,6.579,1.554c1.23,0.954,2.161,2.24,2.957,3.578
					c0.7,1.176,1.321,2.444,1.442,3.808c0.216,2.433-1.39,4.912-3.699,5.71c-0.317,0.11-0.675,0.188-0.98,0.049
					c-0.241-0.11-0.407-0.337-0.535-0.569c-0.774-1.398-0.505-3.227,0.432-4.522c0.937-1.295,2.444-2.094,4.003-2.445
					c2.939-0.661,6.181,0.227,8.374,2.292c2.193,2.065,3.272,5.249,2.787,8.222"/>
			</g>
		</g>
	</g>
</g>
</svg>
